<?xml version="1.0" encoding="utf-8"?>
<!DOCTYPE svg PUBLIC "-//W3C//DTD SVG 1.1//EN" "http://www.w3.org/Graphics/SVG/1.1/DTD/svg11.dtd">
<svg version="1.1" id="Layer_1" xmlns="http://www.w3.org/2000/svg" xmlns:xlink="http://www.w3.org/1999/xlink" x="0px" y="0px" viewBox="0 0 882.1 414.3" enable-background="new 0 0 882.1 414.3" xml:space="preserve">
<g>
	<path fill="#333333" d="M225.3,51.1l-87.6-0.6l-18.4,62.2l-1.8,265.7l123.5,0.9l1.9-269L225.3,51.1z M151.4,321.1l-17.9-0.1
		l0.3-36.8l17.9,0.1L151.4,321.1z M151.8,270l-17.9-0.1l0.3-36.8l17.9,0.1L151.8,270z M152.1,218.9l-17.9-0.1l0.3-36.8l17.9,0.1
		L152.1,218.9z M152.5,167.8l-17.9-0.1l0.3-36.8l17.9,0.1L152.5,167.8z M176.9,321.3l-17.9-0.1l0.3-36.8l17.9,0.1L176.9,321.3z
		 M177.3,270.2l-17.9-0.1l0.3-36.8l17.9,0.1L177.3,270.2z M177.6,219.1l-17.9-0.1l0.3-36.8l17.9,0.1L177.6,219.1z M178,168
		l-17.9-0.1l0.3-36.8l17.9,0.1L178,168z M202.4,321.5l-17.9-0.1l0.3-36.8l17.9,0.1L202.4,321.5z M202.7,270.4l-17.9-0.1l0.3-36.8
		l17.9,0.1L202.7,270.4z M203.1,219.3l-17.9-0.1l0.3-36.8l17.9,0.1L203.1,219.3z M203.5,168.2l-17.9-0.1l0.3-36.8l17.9,0.1
		L203.5,168.2z M227.9,321.7l-17.9-0.1l0.3-36.8l17.9,0.1L227.9,321.7z M228.2,270.6l-17.9-0.1l0.3-36.8l17.9,0.1L228.2,270.6z
		 M228.6,219.4l-17.9-0.1l0.3-36.8l17.9,0.1L228.6,219.4z M228.9,168.3l-17.9-0.1l0.3-36.8l17.9,0.1L228.9,168.3z"/>
	<line fill="#FFFFFF" stroke="#333333" stroke-width="6.5619" stroke-miterlimit="10" x1="72.6" y1="380.7" x2="290.4" y2="378.9"/>
</g>
<g opacity="0.2">
	<path fill="#231F20" d="M111.4,170.7l-55.8-0.4l-11.7,39.6l-1.2,169.3l78.7,0.5l1.2-171.4L111.4,170.7z M64.4,342.7L53,342.7
		l0.2-23.4l11.4,0.1L64.4,342.7z M64.6,310.2l-11.4-0.1l0.2-23.4l11.4,0.1L64.6,310.2z M64.8,277.6l-11.4-0.1l0.2-23.4l11.4,0.1
		L64.8,277.6z M65.1,245L53.7,245l0.2-23.4l11.4,0.1L65.1,245z M80.6,342.9l-11.4-0.1l0.2-23.4l11.4,0.1L80.6,342.9z M80.9,310.3
		l-11.4-0.1l0.2-23.4l11.4,0.1L80.9,310.3z M81.1,277.7l-11.4-0.1l0.2-23.4l11.4,0.1L81.1,277.7z M81.3,245.2l-11.4-0.1l0.2-23.4
		l11.4,0.1L81.3,245.2z M96.9,343l-11.4-0.1l0.2-23.4l11.4,0.1L96.9,343z M97.1,310.4l-11.4-0.1l0.2-23.4l11.4,0.1L97.1,310.4z
		 M97.3,277.8l-11.4-0.1l0.2-23.4l11.4,0.1L97.3,277.8z M97.5,245.3l-11.4-0.1l0.2-23.4l11.4,0.1L97.5,245.3z M113.1,343.1
		l-11.4-0.1l0.2-23.4l11.4,0.1L113.1,343.1z M113.3,310.5l-11.4-0.1l0.2-23.4l11.4,0.1L113.3,310.5z M113.5,277.9l-11.4-0.1
		l0.2-23.4l11.4,0.1L113.5,277.9z M113.8,245.4l-11.4-0.1l0.2-23.4l11.4,0.1L113.8,245.4z"/>
	<line fill="#FFFFFF" stroke="#231F20" stroke-width="4.1813" stroke-miterlimit="10" x1="14.2" y1="380.7" x2="152.9" y2="379.6"/>
</g>
<g>
	<path fill="#333333" d="M361.1,174.3v-62.1c0-21.5-12.1-35.7-33.2-35.7c-20.5,0-36.3,15.6-36.3,37.3v60.5h-10V69.7h10v19.5
		c7-12.3,18.7-21.9,37.7-21.9c26.4,0,41.8,18,41.8,43.1v64H361.1z"/>
	<path fill="#333333" d="M407.4,42.4V28.7h12.5v13.7H407.4z M408.6,174.3V69.7h10v104.6H408.6z"/>
	<path fill="#333333" d="M606.3,174.3v-62.1c0-22.6-11.7-35.7-31-35.7c-17.6,0-33,13.5-33,36.9v60.9h-10v-62.7
		c0-21.7-11.9-35.1-30.6-35.1s-33.4,16.4-33.4,37.5v60.3h-10V69.7h10v18.7c6.8-10.9,16.2-21.1,34.9-21.1c18.2,0,29.5,10.5,35.3,22.6
		c6.8-11.7,18-22.6,37.7-22.6c24.8,0,40.2,17.4,40.2,43.7v63.4H606.3z"/>
	<path fill="#333333" d="M706.3,176.7c-20.9,0-34.4-11.9-43.1-25v22.6h-10V24.6h10v68.5c9-13.7,22.3-25.8,43.1-25.8
		c25.2,0,50.8,20.3,50.8,54.3v0.4C757.2,156,731.6,176.7,706.3,176.7z M746.3,122c0-27.5-19.1-45.1-41-45.1
		c-21.7,0-42.6,18.2-42.6,44.9v0.4c0,26.9,20.9,44.9,42.6,44.9c22.8,0,41-16.6,41-44.7V122z"/>
	<path fill="#333333" d="M831,178c-9.2,21.9-19.9,29.7-34.9,29.7c-8,0-13.7-1.4-20.7-4.5l3.5-8.8c5.5,2.7,10,3.9,17.8,3.9
		c10.9,0,18-6.4,25.8-24.6l-50.2-104H784l43.5,93.5l37.7-93.5h11.1L831,178z"/>
	<path fill="#333333" d="M361.1,359.1v-62.1c0-21.5-12.1-35.7-33.2-35.7c-20.5,0-36.3,15.6-36.3,37.3v60.5h-10V254.5h10V274
		c7-12.3,18.7-21.9,37.7-21.9c26.4,0,41.8,18,41.8,43.1v64H361.1z"/>
	<path fill="#333333" d="M407.4,227.2v-13.7h12.5v13.7H407.4z M408.6,359.1V254.5h10v104.6H408.6z"/>
	<path fill="#333333" d="M537.8,359.1v-62.1c0-21.5-12.1-35.7-33.2-35.7c-20.5,0-36.3,15.6-36.3,37.3v60.5h-10V254.5h10V274
		c7-12.3,18.7-21.9,37.7-21.9c26.4,0,41.8,18,41.8,43.1v64H537.8z"/>
	<path fill="#333333" d="M573.1,392.5c-2.9,0-5.3-0.2-8.4-0.8v-8.8c2.5,0.4,5.9,0.6,8.2,0.6c7.4,0,12.5-4.7,12.5-14.6V254.5h10
		v113.8C595.4,384.7,586.6,392.5,573.1,392.5z M584.1,227.2v-13.7h12.5v13.7H584.1z"/>
	<path fill="#333333" d="M706.8,359.1v-17.4c-7.2,10-20.1,19.9-40,19.9c-19.5,0-40.4-11.1-40.4-32.8v-0.4c0-21.7,18.7-34,45.7-34
		c14.6,0,24.6,1.8,34.7,4.5v-4.5c0-21.1-12.9-32-34.4-32c-12.7,0-23.2,3.5-32.8,8.4l-3.7-8.8c11.5-5.3,22.8-9,37.1-9
		c26.9,0,43.7,13.9,43.7,41v65.2H706.8z M707,308c-8.8-2.3-20.5-4.7-35.5-4.7c-22.1,0-34.4,9.8-34.4,24.4v0.4
		c0,15.2,14.4,24,30.3,24c21.3,0,39.6-13.1,39.6-32.2V308z"/>
</g>
</svg>